# xmcd CD database file
#
# Track frame offsets:
#	150
#	19020
#	38283
#	54482
#	71325
#	82773
#	100075
#	113294
#	130432
#	143504
#	160694
#	180829
#	194330
#	208805
#
# Disc length: 3077 seconds
#
# Revision: 0
# Processed by: cddbd v1.5.2PL0 Copyright (c) Steve Scherf et al.
# Submitted via: CDex 1.70beta2
#
DISCID=a00c030e
DTITLE=Go Spirits - Leaps of Faith
DYEAR=2008
DGENRE=Blues
TTITLE0=Humble Me
TTITLE1=Motherless Child
TTITLE2=Hallelujah
TTITLE3=Oh Mary Dont´t You Weep
TTITLE4=Something
TTITLE5=His Eye Is On The Sparrow
TTITLE6=Stand By Me
TTITLE7=Jesus Gonna Be
TTITLE8=I Fly Away
TTITLE9=Way Down
TTITLE10=I´m On My Way
TTITLE11=I Believe
TTITLE12=If I Had A Hammer
TTITLE13=Let Your Soul
EXTD=YEAR: 2008
EXTT0=
EXTT1=
EXTT2=
EXTT3=
EXTT4=
EXTT5=
EXTT6=
EXTT7=
EXTT8=
EXTT9=
EXTT10=
EXTT11=
EXTT12=
EXTT13=
PLAYORDER=
